<?xml version="1.0" encoding="utf-8"?>
<!-- Generator: Adobe Illustrator 16.0.0, SVG Export Plug-In . SVG Version: 6.00 Build 0)  -->
<!DOCTYPE svg PUBLIC "-//W3C//DTD SVG 1.1//EN" "http://www.w3.org/Graphics/SVG/1.1/DTD/svg11.dtd">
<svg version="1.1" id="Ebene_1" xmlns="http://www.w3.org/2000/svg" xmlns:xlink="http://www.w3.org/1999/xlink" x="0px" y="0px"
	 width="3000px" height="2330px" viewBox="0 0 3000 2330" enable-background="new 0 0 3000 2330" xml:space="preserve">
<g>
	<path fill-rule="evenodd" clip-rule="evenodd" d="M635.47,1141.66c-2.29-7.02-4.1-14.23-6.98-21.01
		c-15.64-36.87-22.96-75.21-22.65-115.32c0.51-64.86-0.48-129.74,0.47-194.58c0.5-33.38,11.41-64.62,26.59-94.17
		c25.34-49.36,72.23-77.79,110.58-114.72c40.62-39.13,92.23-53.43,142.36-71.41c39-13.99,78.96-25.55,119.02-36.27
		c29.32-7.84,59.44-12.71,89.26-18.6c35.03-6.93,69.95-14.71,105.23-20.01c49.19-7.4,98.63-13.21,148.06-18.96
		c18.71-2.17,37.73-1.59,56.49-3.53c60.98-6.33,120.35,3.02,179.74,15.54c18.19,3.84,37.56,1.89,56.38,3.1
		c68.94,4.48,137.82,10.89,206.82,13.36c95.21,3.4,170.77,49.68,239.18,108.78c47.65,41.13,89.75,88.66,134.65,133.01
		c16.42,16.23,34.52,30.79,50.53,47.39c23.23,24.08,42.74,51.25,51.43,83.98c5.06,19.04,11.85,40.56,7.58,58.52
		c-9.2,38.73-2.33,77.54-7.24,115.75c-4.8,37.46-14.04,74.34-20.76,111.58c-1.21,6.78,0.41,14.08,0.72,21.15
		c6.22-1.51,13.37-1.55,18.53-4.77c66.07-41.04,137.42-38.66,210.72-28.77c45.36,6.11,89.08,15.69,131.22,33.84
		c31.76,13.68,57.64,33.26,72.07,64.92c5.73,12.62,8.93,27.26,9.6,41.16c1.45,29.94,0.02,60.01,0.74,90
		c0.63,26.01-3.03,50.48-14.56,74.39c-10.09,20.95-15,44.41-25.22,65.28c-11.55,23.59-26.21,45.68-39.96,68.13
		c-12.51,20.43-25.5,40.54-38.5,60.66c-10.78,16.68-22.89,32.58-32.57,49.86c-15.56,27.84-29.54,56.57-44.29,84.88
		c-16.64,31.92-33.37,63.77-50.12,95.63c-2.86,5.44-5.55,11.08-9.13,16.05c-16.06,22.39-36.84,34.47-65.6,31.57
		c-54.66-5.52-109.38-10.79-164.16-14.95c-53.65-4.06-103.47-22.17-154.09-38.11c-20.43-6.43-42.63-9.97-64.06-10.06
		c-186.35-0.77-372.73-2.04-559.08-0.02c-189.66,2.05-379.27,7.76-568.91,11.72c-56.69,1.19-112.97,5.81-168,20.08
		c-30.82,7.99-61,18.5-91.91,26.09c-51.77,12.74-104.25,21.23-157.88,18.57c-14.21-0.7-23.09-7.88-24.89-23.19
		c-2.02-17.1-11.15-56.75-11.45-58.56c-4.86-29.64-40.96-93.59-50.17-123.38c-15.83-36.12-31.57-73.1-61.63-100.54
		c-6.52-5.96-55.11-75.16-62.72-87.49c-5.68-9.23-6.06-21.63-9.23-32.5c-5.97-20.49-12.33-40.86-18.36-61.33
		c-1.86-6.33-4.46-12.77-4.55-19.21c-0.42-31.46-0.77-62.94,0.29-94.37c0.38-11.16,5.14-22.12,7.32-33.29
		c10.98-56.27,25.76-110.62,69.36-152.15c25.07-23.88,53.54-36.84,88.89-34.79c46.3,2.68,93.3,0.92,137.17,18.95
		c19.87,8.17,38.35,19.8,57.14,30.41c6.44,3.65,11.92,9,17.83,13.58C633.69,1142.91,634.58,1142.29,635.47,1141.66z
		 M1058.65,1241.19c1.75,0,3.51,0,5.27,0c0,52.22-0.05,104.46,0.06,156.7c0.01,5.77-0.55,12.23,1.78,17.12
		c2.32,4.87,7.95,11.52,12.14,11.53c14.26,0.03,30.24,1.1,42.51-4.68c63.27-29.84,126.41-60.18,188.02-93.27
		c55.66-29.91,109.2-63.73,163.85-95.51c16.5-9.58,17.95-17.23,5.45-31.56c-33.11-37.95-79.31-56.02-121.92-78.91
		c-34.25-18.4-72.01-30.22-106.72-47.9c-18.57-9.45-32.81-27.17-51.05-37.53c-31.76-18.07-64.97-33.64-97.86-49.66
		c-23.37-11.38-31.77-6.32-33.07,19.37c-0.46,8.94-2.23,15-11.66,19.25c-3.6,1.62-6.62,15.32-4.37,17.36
		c11.63,10.43,8.35,22.07,8.07,35.15C1057.96,1132.78,1058.65,1186.98,1058.65,1241.19z M1871.14,1252.49
		c-2.3-95.82-8.89-115.44-35.07-181.81c-4.43-11.22-7.66-23.2-13.98-33.23c-2.76-4.37-11.91-4.73-18.16-6.91
		c-0.12,5.64-1.79,11.81-0.08,16.81c5,14.56,12.08,28.42,17.01,42.99c9.24,27.33,22.32,54.46,25.26,82.56
		c6.95,66.54,6.42,133.24-22.07,196.42c-2,4.45,1.85,11.54,2.98,17.4c4.85-3.62,12.1-6.2,14.16-11.03
		C1861.28,1329.04,1871.51,1280.25,1871.14,1252.49z M1693.6,1227.04c-1.35-17.27-1.42-34.81-4.76-51.69
		c-1.19-6.06-10.28-10.55-15.76-15.76c-1.72,7.01-5.93,14.5-4.7,20.96c7.51,40.23,7.53,79.6-8.49,118.05
		c-3.5,8.4-6.89,17-8.84,25.84c-0.72,3.21,2.36,10.03,4.64,10.48c3.7,0.75,8.96-1.5,12.14-4.18c3.08-2.61,4.64-7.23,6.45-11.16
		C1687.85,1290.26,1696.11,1259.84,1693.6,1227.04z M1579.46,1235.19c-4.54-11.85-6.63-20.16-10.93-27.11
		c-1.72-2.76-8.78-4.11-12.52-3.02c-2.38,0.69-5.33,7.94-4.22,10.7c7.69,19.04-1.03,33.13-11.52,47.74
		c-2.78,3.86-0.88,11.09-1.12,16.78c5.58-1.11,13.96-0.29,16.27-3.65C1564.62,1263.24,1571.93,1248.56,1579.46,1235.19z"/>
	<path fill-rule="evenodd" clip-rule="evenodd" d="M1351.47,1193.58c5.23,3.16,10.68,6.01,15.67,9.52
		c20.5,14.4,22.45,13.94,31.87-10.42c16.77,7.84,33.37,15.59,49.98,23.34c0.15,1.96,0.28,3.91,0.42,5.87
		c-13.87,6.9-27.74,13.82-41.63,20.66c-0.77,0.38-2.06,0.46-2.79,0.07c-16.99-9.14-34.42-17.63-50.57-28.07
		c-4.61-2.98-5.48-11.72-8.06-17.81C1348.05,1195.68,1349.76,1194.63,1351.47,1193.58z"/>
	<path fill-rule="evenodd" clip-rule="evenodd" d="M1093.37,1014.77c24.72,18.64,49.44,37.28,74.17,55.92
		c-0.49,0.97-0.97,1.95-1.46,2.93c-23.87-10.79-48.34-20.51-71.16-33.2c-5.29-2.94-4.91-16.06-7.14-24.49
		C1089.63,1015.54,1091.5,1015.14,1093.37,1014.77z"/>
	<path fill-rule="evenodd" clip-rule="evenodd" d="M1093.35,1151.55c0-14.08-0.79-25.48,0.54-36.61c0.35-2.92,8.21-7.85,11.13-6.96
		c8.17,2.48,15.56,7.52,23.25,11.56c-2.88,3.57-5.83,7.08-8.6,10.72c-3.36,4.42-5.94,9.67-10.02,13.21
		C1105.97,1146.68,1100.7,1148.05,1093.35,1151.55z"/>
	<path fill-rule="evenodd" clip-rule="evenodd" d="M1102.86,1176.74c0,30.16,0,60.33,0,90.49c-1.52,0.01-3.05,0.01-4.57,0.02
		c0-30.14,0-60.29,0-90.44C1099.81,1176.79,1101.34,1176.77,1102.86,1176.74z"/>
	<path fill-rule="evenodd" clip-rule="evenodd" d="M1090.92,1361.21c2.53,11.26,5.7,22.45,7.16,33.86c0.36,2.86-4.75,6.44-7.35,9.68
		c-2.45-2.94-6.8-5.74-7.02-8.84c-0.85-11.43-0.34-22.96-0.34-34.46C1085.88,1361.37,1088.4,1361.3,1090.92,1361.21z"/>
	<path fill-rule="evenodd" clip-rule="evenodd" d="M1241.13,1288.07c19.75-10.16,39.5-20.33,59.25-30.5
		c1.12,2.14,2.26,4.3,3.38,6.45c-19.61,10.43-39.21,20.87-58.82,31.31C1243.67,1292.91,1242.4,1290.48,1241.13,1288.07z"/>
</g>
</svg>
