<svg version="1.1" id="culturestreams-logo-only" xmlns="http://www.w3.org/2000/svg" xmlns:xlink="http://www.w3.org/1999/xlink" x="0px" y="0px"
	 viewBox="0 0 210 130" xml:space="preserve">
<g>
	<path class="st0" d="M35.98,62.92c-0.18-0.56-0.33-1.14-0.56-1.69c-1.26-2.96-1.84-6.04-1.82-9.26c0.04-5.21-0.04-10.41,0.04-15.62
		c0.04-2.68,0.92-5.19,2.13-7.56c2.03-3.96,5.8-6.24,8.88-9.21c3.26-3.14,7.4-4.29,11.43-5.73c3.13-1.12,6.34-2.05,9.55-2.91
		c2.35-0.63,4.77-1.02,7.17-1.49c2.81-0.56,5.61-1.18,8.45-1.61c3.95-0.59,7.92-1.06,11.89-1.52c1.5-0.17,3.03-0.13,4.53-0.28
		c4.89-0.51,9.66,0.24,14.43,1.25c1.46,0.31,3.02,0.15,4.53,0.25c5.53,0.36,11.06,0.87,16.6,1.07c7.64,0.27,13.71,3.99,19.2,8.73
		c3.82,3.3,7.2,7.12,10.81,10.68c1.32,1.3,2.77,2.47,4.06,3.8c1.86,1.93,3.43,4.11,4.13,6.74c0.41,1.53,0.95,3.26,0.61,4.7
		c-0.74,3.11-0.19,6.22-0.58,9.29c-0.39,3.01-1.13,5.97-1.67,8.96c-0.1,0.54,0.03,1.13,0.06,1.7c0.5-0.12,1.07-0.12,1.49-0.38
		c5.3-3.29,11.03-3.1,16.92-2.31c3.64,0.49,7.15,1.26,10.53,2.72c2.55,1.1,4.63,2.67,5.79,5.21c0.46,1.01,0.72,2.19,0.77,3.3
		c0.12,2.4,0,4.82,0.06,7.22c0.05,2.09-0.24,4.05-1.17,5.97c-0.81,1.68-1.2,3.56-2.02,5.24c-0.93,1.89-2.1,3.67-3.21,5.47
		c-1,1.64-2.05,3.25-3.09,4.87c-0.86,1.34-1.84,2.62-2.61,4c-1.25,2.24-2.37,4.54-3.56,6.81c-1.34,2.56-2.68,5.12-4.02,7.68
		c-0.23,0.44-0.45,0.89-0.73,1.29c-1.29,1.8-2.96,2.77-5.27,2.53c-4.39-0.44-8.78-0.87-13.18-1.2c-4.31-0.33-8.31-1.78-12.37-3.06
		c-1.64-0.52-3.42-0.8-5.14-0.81c-14.96-0.06-29.92-0.16-44.88,0c-15.22,0.17-30.45,0.62-45.67,0.94c-4.55,0.1-9.07,0.47-13.49,1.61
		c-2.47,0.64-4.9,1.48-7.38,2.09c-4.16,1.02-8.37,1.7-12.67,1.49c-1.14-0.06-1.85-0.63-2-1.86c-0.16-1.37-0.9-4.56-0.92-4.7
		c-0.39-2.38-3.29-7.51-4.03-9.9c-1.27-2.9-2.53-5.87-4.95-8.07C12.51,98.9,8.61,93.34,8,92.35c-0.46-0.74-0.49-1.74-0.74-2.61
		c-0.48-1.64-0.99-3.28-1.47-4.92c-0.15-0.51-0.36-1.03-0.37-1.54c-0.03-2.53-0.06-5.05,0.02-7.58c0.03-0.9,0.41-1.78,0.59-2.67
		c0.88-4.52,2.07-8.88,5.57-12.21c2.01-1.92,4.3-2.96,7.14-2.79c3.72,0.22,7.49,0.07,11.01,1.52c1.59,0.66,3.08,1.59,4.59,2.44
		c0.52,0.29,0.96,0.72,1.43,1.09C35.84,63.02,35.91,62.97,35.98,62.92z M69.95,70.91c0.14,0,0.28,0,0.42,0c0,4.19,0,8.38,0,12.58
		c0,0.46-0.04,0.98,0.14,1.37c0.19,0.39,0.64,0.92,0.97,0.93c1.15,0,2.43,0.09,3.41-0.38c5.08-2.4,10.15-4.83,15.09-7.49
		c4.47-2.4,8.77-5.12,13.15-7.67c1.32-0.77,1.44-1.38,0.44-2.53c-2.66-3.05-6.37-4.5-9.79-6.33c-2.75-1.48-5.78-2.43-8.57-3.85
		c-1.49-0.76-2.63-2.18-4.1-3.01c-2.55-1.45-5.22-2.7-7.86-3.99c-1.88-0.91-2.55-0.51-2.65,1.55c-0.04,0.72-0.18,1.2-0.94,1.55
		c-0.29,0.13-0.53,1.23-0.35,1.39c0.93,0.84,0.67,1.77,0.65,2.82C69.89,62.21,69.95,66.56,69.95,70.91z M135.17,71.82
		c-0.18-7.69-0.71-9.27-2.82-14.59c-0.36-0.9-0.62-1.86-1.12-2.67c-0.22-0.35-0.96-0.38-1.46-0.55c-0.01,0.45-0.14,0.95-0.01,1.35
		c0.4,1.17,0.97,2.28,1.37,3.45c0.74,2.19,1.79,4.37,2.03,6.63c0.56,5.34,0.52,10.7-1.77,15.77c-0.16,0.36,0.15,0.93,0.24,1.4
		c0.39-0.29,0.97-0.5,1.14-0.89C134.38,77.97,135.2,74.05,135.17,71.82z M120.92,69.78c-0.11-1.39-0.11-2.79-0.38-4.15
		c-0.1-0.49-0.83-0.85-1.27-1.27c-0.14,0.56-0.48,1.16-0.38,1.68c0.6,3.23,0.6,6.39-0.68,9.48c-0.28,0.67-0.55,1.36-0.71,2.07
		c-0.06,0.26,0.19,0.81,0.37,0.84c0.3,0.06,0.72-0.12,0.97-0.34c0.25-0.21,0.37-0.58,0.52-0.9
		C120.45,74.85,121.12,72.41,120.92,69.78z M111.75,70.43c-0.36-0.95-0.53-1.62-0.88-2.18c-0.14-0.22-0.7-0.33-1.01-0.24
		c-0.19,0.06-0.43,0.64-0.34,0.86c0.62,1.53-0.08,2.66-0.92,3.83c-0.22,0.31-0.07,0.89-0.09,1.35c0.45-0.09,1.12-0.02,1.31-0.29
		C110.56,72.68,111.15,71.51,111.75,70.43z"/>
	<path class="st0" d="M93.45,67.09c0.42,0.25,0.86,0.48,1.26,0.76c1.65,1.16,1.8,1.12,2.56-0.84c1.35,0.63,2.68,1.25,4.01,1.87
		c0.01,0.16,0.02,0.31,0.03,0.47c-1.11,0.55-2.23,1.11-3.34,1.66c-0.06,0.03-0.17,0.04-0.22,0.01c-1.36-0.73-2.76-1.41-4.06-2.25
		c-0.37-0.24-0.44-0.94-0.65-1.43C93.18,67.26,93.32,67.18,93.45,67.09z"/>
	<path class="st0" d="M72.73,52.74c1.98,1.5,3.97,2.99,5.95,4.49c-0.04,0.08-0.08,0.16-0.12,0.24c-1.92-0.87-3.88-1.65-5.71-2.67
		c-0.42-0.24-0.39-1.29-0.57-1.97C72.43,52.8,72.59,52.77,72.73,52.74z"/>
	<path class="st0" d="M72.73,63.72c0-1.13-0.06-2.05,0.04-2.94c0.03-0.23,0.66-0.63,0.89-0.56c0.66,0.2,1.25,0.6,1.87,0.93
		c-0.23,0.29-0.47,0.57-0.69,0.86c-0.27,0.35-0.48,0.78-0.8,1.06C73.75,63.33,73.32,63.44,72.73,63.72z"/>
	<path class="st0" d="M73.5,65.74c0,2.42,0,4.84,0,7.26c-0.12,0-0.24,0-0.37,0c0-2.42,0-4.84,0-7.26
		C73.25,65.74,73.37,65.74,73.5,65.74z"/>
	<path class="st0" d="M72.54,80.55c0.2,0.9,0.46,1.8,0.57,2.72c0.03,0.23-0.38,0.52-0.59,0.78c-0.2-0.24-0.55-0.46-0.56-0.71
		c-0.07-0.92-0.03-1.84-0.03-2.77C72.13,80.56,72.34,80.55,72.54,80.55z"/>
	<path class="st0" d="M84.6,74.68c1.59-0.82,3.17-1.63,4.76-2.45c0.09,0.17,0.18,0.35,0.27,0.52c-1.57,0.84-3.15,1.68-4.72,2.51
		C84.8,75.06,84.7,74.87,84.6,74.68z"/>
</g>
</svg>
